<mxfile type="device" compressed="false">
    <diagram id="Topology" name="Topology">
      <mxGraphModel dx="1000" dy="1000" grid="1" gridSize="10" guides="1" tooltips="1" connect="1" arrows="1" fold="1" page="1" pageScale="1" pageWidth="827" pageHeight="1169" math="0" shadow="1">
        <root>
          <mxCell id="0" />   
          <mxCell id="1" parent="0" />
        <object id="cpe1" label="cpe1 1.255.0.2/32">
      <mxCell style="rounded=1;whiteSpace=wrap;html=1;" vertex="1" parent="1">
          <mxGeometry x="50" y="230" width="80" height="60" as="geometry" />
      </mxCell>
    </object><object id="pe1" label="pe1 1.255.0.3/32">
      <mxCell style="rounded=1;whiteSpace=wrap;html=1;" vertex="1" parent="1">
          <mxGeometry x="243" y="140" width="80" height="60" as="geometry" />
      </mxCell>
    </object><mxCell id="cc4b5f4d1736085814b34174aa3f602b-src" value="Gi2" style="labelBackgroundColor=#ffffff;;" vertex="1" connectable="0" parent="cc4b5f4d1736085814b34174aa3f602b">
      <mxGeometry x="-0.5" relative="1" as="geometry">
        <mxPoint as="offset" />
      </mxGeometry>
    </mxCell><mxCell id="cc4b5f4d1736085814b34174aa3f602b-trgt" value="Gi0-0-0-0" style="labelBackgroundColor=#ffffff;;" vertex="1" connectable="0" parent="cc4b5f4d1736085814b34174aa3f602b">
      <mxGeometry x="0.5" relative="-1" as="geometry">
        <mxPoint as="offset" />
      </mxGeometry>
    </mxCell><object id="cc4b5f4d1736085814b34174aa3f602b" label="" src_label="Gi2" trgt_label="Gi0-0-0-0" source="cpe1" target="pe1">
      <mxCell style="endArrow=none;" edge="1" parent="1" source="cpe1" target="pe1">
          <mxGeometry relative="1" as="geometry" />
      </mxCell>
    </object><mxCell id="e45cfb23c0f3395859e0314b89212a3c-src" value="Gi3" style="labelBackgroundColor=#ffffff;;" vertex="1" connectable="0" parent="e45cfb23c0f3395859e0314b89212a3c">
      <mxGeometry x="-0.5" relative="1" as="geometry">
        <mxPoint as="offset" />
      </mxGeometry>
    </mxCell><mxCell id="e45cfb23c0f3395859e0314b89212a3c-trgt" value="Gi0-0-0-1" style="labelBackgroundColor=#ffffff;;" vertex="1" connectable="0" parent="e45cfb23c0f3395859e0314b89212a3c">
      <mxGeometry x="0.5" relative="-1" as="geometry">
        <mxPoint as="offset" />
      </mxGeometry>
    </mxCell><object id="e45cfb23c0f3395859e0314b89212a3c" label="" src_label="Gi3" trgt_label="Gi0-0-0-1" source="cpe1" target="pe1">
      <mxCell style="endArrow=none;" edge="1" parent="1" source="cpe1" target="pe1">
          <mxGeometry relative="1" as="geometry" />
      </mxCell>
    </object><object id="p1" label="p1 1.255.0.4/32">
      <mxCell style="rounded=1;whiteSpace=wrap;html=1;" vertex="1" parent="1">
          <mxGeometry x="520" y="140" width="80" height="60" as="geometry" />
      </mxCell>
    </object><mxCell id="c6249914d28e95836c88b8af581abf43-src" value="Gi0-0-0-2" style="labelBackgroundColor=#ffffff;;" vertex="1" connectable="0" parent="c6249914d28e95836c88b8af581abf43">
      <mxGeometry x="-0.5" relative="1" as="geometry">
        <mxPoint as="offset" />
      </mxGeometry>
    </mxCell><mxCell id="c6249914d28e95836c88b8af581abf43-trgt" value="Gi0-0-0-0" style="labelBackgroundColor=#ffffff;;" vertex="1" connectable="0" parent="c6249914d28e95836c88b8af581abf43">
      <mxGeometry x="0.5" relative="-1" as="geometry">
        <mxPoint as="offset" />
      </mxGeometry>
    </mxCell><object id="c6249914d28e95836c88b8af581abf43" label="" src_label="Gi0-0-0-2" trgt_label="Gi0-0-0-0" source="pe1" target="p1">
      <mxCell style="endArrow=none;" edge="1" parent="1" source="pe1" target="p1">
          <mxGeometry relative="1" as="geometry" />
      </mxCell>
    </object><mxCell id="7897e74cd611ede9b0670431fe954327-src" value="Gi0-0-0-3" style="labelBackgroundColor=#ffffff;;" vertex="1" connectable="0" parent="7897e74cd611ede9b0670431fe954327">
      <mxGeometry x="-0.5" relative="1" as="geometry">
        <mxPoint as="offset" />
      </mxGeometry>
    </mxCell><mxCell id="7897e74cd611ede9b0670431fe954327-trgt" value="Gi0-0-0-1" style="labelBackgroundColor=#ffffff;;" vertex="1" connectable="0" parent="7897e74cd611ede9b0670431fe954327">
      <mxGeometry x="0.5" relative="-1" as="geometry">
        <mxPoint as="offset" />
      </mxGeometry>
    </mxCell><object id="7897e74cd611ede9b0670431fe954327" label="" src_label="Gi0-0-0-3" trgt_label="Gi0-0-0-1" source="pe1" target="p1">
      <mxCell style="endArrow=none;" edge="1" parent="1" source="pe1" target="p1">
          <mxGeometry relative="1" as="geometry" />
      </mxCell>
    </object><object id="pe3" label="pe3 1.255.0.5/32">
      <mxCell style="rounded=1;whiteSpace=wrap;html=1;" vertex="1" parent="1">
          <mxGeometry x="820" y="140" width="80" height="60" as="geometry" />
      </mxCell>
    </object><mxCell id="818945163125d8c0d4d64809c4ee357d-src" value="Gi0-0-0-2" style="labelBackgroundColor=#ffffff;;" vertex="1" connectable="0" parent="818945163125d8c0d4d64809c4ee357d">
      <mxGeometry x="-0.5" relative="1" as="geometry">
        <mxPoint as="offset" />
      </mxGeometry>
    </mxCell><mxCell id="818945163125d8c0d4d64809c4ee357d-trgt" value="Gi0-0-0-0" style="labelBackgroundColor=#ffffff;;" vertex="1" connectable="0" parent="818945163125d8c0d4d64809c4ee357d">
      <mxGeometry x="0.5" relative="-1" as="geometry">
        <mxPoint as="offset" />
      </mxGeometry>
    </mxCell><object id="818945163125d8c0d4d64809c4ee357d" label="" src_label="Gi0-0-0-2" trgt_label="Gi0-0-0-0" source="p1" target="pe3">
      <mxCell style="endArrow=none;" edge="1" parent="1" source="p1" target="pe3">
          <mxGeometry relative="1" as="geometry" />
      </mxCell>
    </object><mxCell id="55964bbb7fdde5b3efd886fd36b61a37-src" value="Gi0-0-0-3" style="labelBackgroundColor=#ffffff;;" vertex="1" connectable="0" parent="55964bbb7fdde5b3efd886fd36b61a37">
      <mxGeometry x="-0.5" relative="1" as="geometry">
        <mxPoint as="offset" />
      </mxGeometry>
    </mxCell><mxCell id="55964bbb7fdde5b3efd886fd36b61a37-trgt" value="Gi0-0-0-1" style="labelBackgroundColor=#ffffff;;" vertex="1" connectable="0" parent="55964bbb7fdde5b3efd886fd36b61a37">
      <mxGeometry x="0.5" relative="-1" as="geometry">
        <mxPoint as="offset" />
      </mxGeometry>
    </mxCell><object id="55964bbb7fdde5b3efd886fd36b61a37" label="" src_label="Gi0-0-0-3" trgt_label="Gi0-0-0-1" source="p1" target="pe3">
      <mxCell style="endArrow=none;" edge="1" parent="1" source="p1" target="pe3">
          <mxGeometry relative="1" as="geometry" />
      </mxCell>
    </object><object id="cpe2" label="cpe2 1.255.0.6/32">
      <mxCell style="rounded=1;whiteSpace=wrap;html=1;" vertex="1" parent="1">
          <mxGeometry x="1040" y="230" width="80" height="60" as="geometry" />
      </mxCell>
    </object><mxCell id="7b9d2e467b0ed190d8c99521bd7f54e6-src" value="Gi0-0-0-2" style="labelBackgroundColor=#ffffff;;" vertex="1" connectable="0" parent="7b9d2e467b0ed190d8c99521bd7f54e6">
      <mxGeometry x="-0.5" relative="1" as="geometry">
        <mxPoint as="offset" />
      </mxGeometry>
    </mxCell><mxCell id="7b9d2e467b0ed190d8c99521bd7f54e6-trgt" value="Gi2" style="labelBackgroundColor=#ffffff;;" vertex="1" connectable="0" parent="7b9d2e467b0ed190d8c99521bd7f54e6">
      <mxGeometry x="0.5" relative="-1" as="geometry">
        <mxPoint as="offset" />
      </mxGeometry>
    </mxCell><object id="7b9d2e467b0ed190d8c99521bd7f54e6" label="" src_label="Gi0-0-0-2" trgt_label="Gi2" source="pe3" target="cpe2">
      <mxCell style="endArrow=none;" edge="1" parent="1" source="pe3" target="cpe2">
          <mxGeometry relative="1" as="geometry" />
      </mxCell>
    </object><mxCell id="e1510e81fbc3356bab566e7a538ffdc2-src" value="Gi0-0-0-3" style="labelBackgroundColor=#ffffff;;" vertex="1" connectable="0" parent="e1510e81fbc3356bab566e7a538ffdc2">
      <mxGeometry x="-0.5" relative="1" as="geometry">
        <mxPoint as="offset" />
      </mxGeometry>
    </mxCell><mxCell id="e1510e81fbc3356bab566e7a538ffdc2-trgt" value="Gi3" style="labelBackgroundColor=#ffffff;;" vertex="1" connectable="0" parent="e1510e81fbc3356bab566e7a538ffdc2">
      <mxGeometry x="0.5" relative="-1" as="geometry">
        <mxPoint as="offset" />
      </mxGeometry>
    </mxCell><object id="e1510e81fbc3356bab566e7a538ffdc2" label="" src_label="Gi0-0-0-3" trgt_label="Gi3" source="pe3" target="cpe2">
      <mxCell style="endArrow=none;" edge="1" parent="1" source="pe3" target="cpe2">
          <mxGeometry relative="1" as="geometry" />
      </mxCell>
    </object><object id="pe2" label="pe2 1.255.0.7/32">
      <mxCell style="rounded=1;whiteSpace=wrap;html=1;" vertex="1" parent="1">
          <mxGeometry x="243" y="320" width="80" height="60" as="geometry" />
      </mxCell>
    </object><mxCell id="c85027f9c5c62b8d5181ba140b89bf99-src" value="Gi4" style="labelBackgroundColor=#ffffff;;" vertex="1" connectable="0" parent="c85027f9c5c62b8d5181ba140b89bf99">
      <mxGeometry x="-0.5" relative="1" as="geometry">
        <mxPoint as="offset" />
      </mxGeometry>
    </mxCell><mxCell id="c85027f9c5c62b8d5181ba140b89bf99-trgt" value="Gi0-0-0-0" style="labelBackgroundColor=#ffffff;;" vertex="1" connectable="0" parent="c85027f9c5c62b8d5181ba140b89bf99">
      <mxGeometry x="0.5" relative="-1" as="geometry">
        <mxPoint as="offset" />
      </mxGeometry>
    </mxCell><object id="c85027f9c5c62b8d5181ba140b89bf99" label="" src_label="Gi4" trgt_label="Gi0-0-0-0" source="cpe1" target="pe2">
      <mxCell style="endArrow=none;" edge="1" parent="1" source="cpe1" target="pe2">
          <mxGeometry relative="1" as="geometry" />
      </mxCell>
    </object><mxCell id="5d7979c863d4314b1842be98dc819ef3-src" value="Gi5" style="labelBackgroundColor=#ffffff;;" vertex="1" connectable="0" parent="5d7979c863d4314b1842be98dc819ef3">
      <mxGeometry x="-0.5" relative="1" as="geometry">
        <mxPoint as="offset" />
      </mxGeometry>
    </mxCell><mxCell id="5d7979c863d4314b1842be98dc819ef3-trgt" value="Gi0-0-0-1" style="labelBackgroundColor=#ffffff;;" vertex="1" connectable="0" parent="5d7979c863d4314b1842be98dc819ef3">
      <mxGeometry x="0.5" relative="-1" as="geometry">
        <mxPoint as="offset" />
      </mxGeometry>
    </mxCell><object id="5d7979c863d4314b1842be98dc819ef3" label="" src_label="Gi5" trgt_label="Gi0-0-0-1" source="cpe1" target="pe2">
      <mxCell style="endArrow=none;" edge="1" parent="1" source="cpe1" target="pe2">
          <mxGeometry relative="1" as="geometry" />
      </mxCell>
    </object><object id="p2" label="p2 1.255.0.8/32">
      <mxCell style="rounded=1;whiteSpace=wrap;html=1;" vertex="1" parent="1">
          <mxGeometry x="520" y="320" width="80" height="60" as="geometry" />
      </mxCell>
    </object><mxCell id="99858499e0d1b749746e50b7ca651322-src" value="Gi0-0-0-2" style="labelBackgroundColor=#ffffff;;" vertex="1" connectable="0" parent="99858499e0d1b749746e50b7ca651322">
      <mxGeometry x="-0.5" relative="1" as="geometry">
        <mxPoint as="offset" />
      </mxGeometry>
    </mxCell><mxCell id="99858499e0d1b749746e50b7ca651322-trgt" value="Gi0-0-0-0" style="labelBackgroundColor=#ffffff;;" vertex="1" connectable="0" parent="99858499e0d1b749746e50b7ca651322">
      <mxGeometry x="0.5" relative="-1" as="geometry">
        <mxPoint as="offset" />
      </mxGeometry>
    </mxCell><object id="99858499e0d1b749746e50b7ca651322" label="" src_label="Gi0-0-0-2" trgt_label="Gi0-0-0-0" source="pe2" target="p2">
      <mxCell style="endArrow=none;" edge="1" parent="1" source="pe2" target="p2">
          <mxGeometry relative="1" as="geometry" />
      </mxCell>
    </object><mxCell id="455c34051cf3cd8944888e273e1c19af-src" value="Gi0-0-0-3" style="labelBackgroundColor=#ffffff;;" vertex="1" connectable="0" parent="455c34051cf3cd8944888e273e1c19af">
      <mxGeometry x="-0.5" relative="1" as="geometry">
        <mxPoint as="offset" />
      </mxGeometry>
    </mxCell><mxCell id="455c34051cf3cd8944888e273e1c19af-trgt" value="Gi0-0-0-1" style="labelBackgroundColor=#ffffff;;" vertex="1" connectable="0" parent="455c34051cf3cd8944888e273e1c19af">
      <mxGeometry x="0.5" relative="-1" as="geometry">
        <mxPoint as="offset" />
      </mxGeometry>
    </mxCell><object id="455c34051cf3cd8944888e273e1c19af" label="" src_label="Gi0-0-0-3" trgt_label="Gi0-0-0-1" source="pe2" target="p2">
      <mxCell style="endArrow=none;" edge="1" parent="1" source="pe2" target="p2">
          <mxGeometry relative="1" as="geometry" />
      </mxCell>
    </object><object id="pe4" label="pe4 1.255.0.9/32">
      <mxCell style="rounded=1;whiteSpace=wrap;html=1;" vertex="1" parent="1">
          <mxGeometry x="820" y="320" width="80" height="60" as="geometry" />
      </mxCell>
    </object><mxCell id="f5d06609802e8e299605dc9c2c5b025c-src" value="Gi0-0-0-2" style="labelBackgroundColor=#ffffff;;" vertex="1" connectable="0" parent="f5d06609802e8e299605dc9c2c5b025c">
      <mxGeometry x="-0.5" relative="1" as="geometry">
        <mxPoint as="offset" />
      </mxGeometry>
    </mxCell><mxCell id="f5d06609802e8e299605dc9c2c5b025c-trgt" value="Gi0-0-0-0" style="labelBackgroundColor=#ffffff;;" vertex="1" connectable="0" parent="f5d06609802e8e299605dc9c2c5b025c">
      <mxGeometry x="0.5" relative="-1" as="geometry">
        <mxPoint as="offset" />
      </mxGeometry>
    </mxCell><object id="f5d06609802e8e299605dc9c2c5b025c" label="" src_label="Gi0-0-0-2" trgt_label="Gi0-0-0-0" source="p2" target="pe4">
      <mxCell style="endArrow=none;" edge="1" parent="1" source="p2" target="pe4">
          <mxGeometry relative="1" as="geometry" />
      </mxCell>
    </object><mxCell id="06be7a9c8a44fdf1c0ba168a59151de7-src" value="Gi0-0-0-3" style="labelBackgroundColor=#ffffff;;" vertex="1" connectable="0" parent="06be7a9c8a44fdf1c0ba168a59151de7">
      <mxGeometry x="-0.5" relative="1" as="geometry">
        <mxPoint as="offset" />
      </mxGeometry>
    </mxCell><mxCell id="06be7a9c8a44fdf1c0ba168a59151de7-trgt" value="Gi0-0-0-1" style="labelBackgroundColor=#ffffff;;" vertex="1" connectable="0" parent="06be7a9c8a44fdf1c0ba168a59151de7">
      <mxGeometry x="0.5" relative="-1" as="geometry">
        <mxPoint as="offset" />
      </mxGeometry>
    </mxCell><object id="06be7a9c8a44fdf1c0ba168a59151de7" label="" src_label="Gi0-0-0-3" trgt_label="Gi0-0-0-1" source="p2" target="pe4">
      <mxCell style="endArrow=none;" edge="1" parent="1" source="p2" target="pe4">
          <mxGeometry relative="1" as="geometry" />
      </mxCell>
    </object><mxCell id="341fea9b33fb4373984329f978446048-src" value="Gi0-0-0-2" style="labelBackgroundColor=#ffffff;;" vertex="1" connectable="0" parent="341fea9b33fb4373984329f978446048">
      <mxGeometry x="-0.5" relative="1" as="geometry">
        <mxPoint as="offset" />
      </mxGeometry>
    </mxCell><mxCell id="341fea9b33fb4373984329f978446048-trgt" value="Gi4" style="labelBackgroundColor=#ffffff;;" vertex="1" connectable="0" parent="341fea9b33fb4373984329f978446048">
      <mxGeometry x="0.5" relative="-1" as="geometry">
        <mxPoint as="offset" />
      </mxGeometry>
    </mxCell><object id="341fea9b33fb4373984329f978446048" label="" src_label="Gi0-0-0-2" trgt_label="Gi4" source="pe4" target="cpe2">
      <mxCell style="endArrow=none;" edge="1" parent="1" source="pe4" target="cpe2">
          <mxGeometry relative="1" as="geometry" />
      </mxCell>
    </object><mxCell id="4b5ea4ea525d148e9372b9f22c9b0035-src" value="Gi0-0-0-3" style="labelBackgroundColor=#ffffff;;" vertex="1" connectable="0" parent="4b5ea4ea525d148e9372b9f22c9b0035">
      <mxGeometry x="-0.5" relative="1" as="geometry">
        <mxPoint as="offset" />
      </mxGeometry>
    </mxCell><mxCell id="4b5ea4ea525d148e9372b9f22c9b0035-trgt" value="Gi5" style="labelBackgroundColor=#ffffff;;" vertex="1" connectable="0" parent="4b5ea4ea525d148e9372b9f22c9b0035">
      <mxGeometry x="0.5" relative="-1" as="geometry">
        <mxPoint as="offset" />
      </mxGeometry>
    </mxCell><object id="4b5ea4ea525d148e9372b9f22c9b0035" label="" src_label="Gi0-0-0-3" trgt_label="Gi5" source="pe4" target="cpe2">
      <mxCell style="endArrow=none;" edge="1" parent="1" source="pe4" target="cpe2">
          <mxGeometry relative="1" as="geometry" />
      </mxCell>
    </object><object id="rr1" label="rr1 1.255.0.10/32">
      <mxCell style="rounded=1;whiteSpace=wrap;html=1;" vertex="1" parent="1">
          <mxGeometry x="700" y="-10" width="80" height="60" as="geometry" />
      </mxCell>
    </object><mxCell id="a4e6fd27a5ea0c1b85e8a395fb79aa3d-src" value="Gi0-0-0-0" style="labelBackgroundColor=#ffffff;;" vertex="1" connectable="0" parent="a4e6fd27a5ea0c1b85e8a395fb79aa3d">
      <mxGeometry x="-0.5" relative="1" as="geometry">
        <mxPoint as="offset" />
      </mxGeometry>
    </mxCell><mxCell id="a4e6fd27a5ea0c1b85e8a395fb79aa3d-trgt" value="Gi0-0-0-4" style="labelBackgroundColor=#ffffff;;" vertex="1" connectable="0" parent="a4e6fd27a5ea0c1b85e8a395fb79aa3d">
      <mxGeometry x="0.5" relative="-1" as="geometry">
        <mxPoint as="offset" />
      </mxGeometry>
    </mxCell><object id="a4e6fd27a5ea0c1b85e8a395fb79aa3d" label="" src_label="Gi0-0-0-0" trgt_label="Gi0-0-0-4" source="rr1" target="p1">
      <mxCell style="endArrow=none;" edge="1" parent="1" source="rr1" target="p1">
          <mxGeometry relative="1" as="geometry" />
      </mxCell>
    </object><mxCell id="ffb121a144c67f0bd176e3b00057bd23-src" value="Gi0-0-0-1" style="labelBackgroundColor=#ffffff;;" vertex="1" connectable="0" parent="ffb121a144c67f0bd176e3b00057bd23">
      <mxGeometry x="-0.5" relative="1" as="geometry">
        <mxPoint as="offset" />
      </mxGeometry>
    </mxCell><mxCell id="ffb121a144c67f0bd176e3b00057bd23-trgt" value="Gi0-0-0-4" style="labelBackgroundColor=#ffffff;;" vertex="1" connectable="0" parent="ffb121a144c67f0bd176e3b00057bd23">
      <mxGeometry x="0.5" relative="-1" as="geometry">
        <mxPoint as="offset" />
      </mxGeometry>
    </mxCell><object id="ffb121a144c67f0bd176e3b00057bd23" label="" src_label="Gi0-0-0-1" trgt_label="Gi0-0-0-4" source="rr1" target="p2">
      <mxCell style="endArrow=none;" edge="1" parent="1" source="rr1" target="p2">
          <mxGeometry relative="1" as="geometry" />
      </mxCell>
    </object><object id="rr2" label="rr2 1.255.0.11/32">
      <mxCell style="rounded=1;whiteSpace=wrap;html=1;" vertex="1" parent="1">
          <mxGeometry x="700" y="440" width="80" height="60" as="geometry" />
      </mxCell>
    </object><mxCell id="b9cdba8108bfa20d06e9902d42a35be7-src" value="Gi0-0-0-0" style="labelBackgroundColor=#ffffff;;" vertex="1" connectable="0" parent="b9cdba8108bfa20d06e9902d42a35be7">
      <mxGeometry x="-0.5" relative="1" as="geometry">
        <mxPoint as="offset" />
      </mxGeometry>
    </mxCell><mxCell id="b9cdba8108bfa20d06e9902d42a35be7-trgt" value="Gi0-0-0-5" style="labelBackgroundColor=#ffffff;;" vertex="1" connectable="0" parent="b9cdba8108bfa20d06e9902d42a35be7">
      <mxGeometry x="0.5" relative="-1" as="geometry">
        <mxPoint as="offset" />
      </mxGeometry>
    </mxCell><object id="b9cdba8108bfa20d06e9902d42a35be7" label="" src_label="Gi0-0-0-0" trgt_label="Gi0-0-0-5" source="rr2" target="p1">
      <mxCell style="endArrow=none;" edge="1" parent="1" source="rr2" target="p1">
          <mxGeometry relative="1" as="geometry" />
      </mxCell>
    </object><mxCell id="9b900868570ea0ff0142eceedc6e87dc-src" value="Gi0-0-0-1" style="labelBackgroundColor=#ffffff;;" vertex="1" connectable="0" parent="9b900868570ea0ff0142eceedc6e87dc">
      <mxGeometry x="-0.5" relative="1" as="geometry">
        <mxPoint as="offset" />
      </mxGeometry>
    </mxCell><mxCell id="9b900868570ea0ff0142eceedc6e87dc-trgt" value="Gi0-0-0-5" style="labelBackgroundColor=#ffffff;;" vertex="1" connectable="0" parent="9b900868570ea0ff0142eceedc6e87dc">
      <mxGeometry x="0.5" relative="-1" as="geometry">
        <mxPoint as="offset" />
      </mxGeometry>
    </mxCell><object id="9b900868570ea0ff0142eceedc6e87dc" label="" src_label="Gi0-0-0-1" trgt_label="Gi0-0-0-5" source="rr2" target="p2">
      <mxCell style="endArrow=none;" edge="1" parent="1" source="rr2" target="p2">
          <mxGeometry relative="1" as="geometry" />
      </mxCell>
    </object></root>
      </mxGraphModel>
    </diagram></mxfile>